<svg width="24" height="15" viewBox="0 0 24 15" fill="none" xmlns="http://www.w3.org/2000/svg">
<path d="M3.04297 0.78125V15H0.357422V0.78125H3.04297ZM11.5781 0.78125L5.875 7.71484L2.61328 11.2012L2.13477 8.59375L4.40039 5.6543L8.28711 0.78125H11.5781ZM8.58984 15L4.16602 8.33984L6.08984 6.60156L11.7832 15H8.58984ZM13.0332 0.78125H18.1992C19.2799 0.78125 20.2077 0.94401 20.9824 1.26953C21.7572 1.59505 22.3529 2.07682 22.7695 2.71484C23.1862 3.35286 23.3945 4.13737 23.3945 5.06836C23.3945 5.80404 23.2643 6.44206 23.0039 6.98242C22.7435 7.52279 22.3757 7.97526 21.9004 8.33984C21.4316 8.70443 20.8783 8.99089 20.2402 9.19922L19.4004 9.62891H14.8398L14.8203 7.50977H18.2285C18.7819 7.50977 19.2409 7.41211 19.6055 7.2168C19.9701 7.02148 20.2435 6.7513 20.4258 6.40625C20.6146 6.0612 20.709 5.66732 20.709 5.22461C20.709 4.74935 20.6178 4.33919 20.4355 3.99414C20.2533 3.64258 19.9766 3.3724 19.6055 3.18359C19.2344 2.99479 18.7656 2.90039 18.1992 2.90039H15.7188V15H13.0332V0.78125ZM21.0605 15L17.7695 8.63281L20.6113 8.62305L23.9414 14.8633V15H21.0605Z" fill="#EFEFEF" fill-opacity="0.7"/>
</svg>
